<svg width="74" height="60" viewBox="0 0 74 60" fill="none" xmlns="http://www.w3.org/2000/svg">
<mask id="path-1-outside-1_8_100" maskUnits="userSpaceOnUse" x="-1" y="-1" width="76" height="62" fill="black">
<rect fill="white" x="-1" y="-1" width="76" height="62"/>
<path d="M20.6836 59.2754C16.6445 59.2754 13.1257 57.9596 10.127 55.3281C7.12826 52.6966 4.80273 49.1471 3.15039 44.6797C1.49805 40.2122 0.671875 35.2246 0.671875 29.7168C0.671875 24.1478 1.49805 19.1602 3.15039 14.7539C4.80273 10.2865 7.12826 6.73698 10.127 4.10547C13.1257 1.47396 16.6445 0.158203 20.6836 0.158203C24.8451 0.158203 28.3945 1.47396 31.332 4.10547C34.3307 6.67578 36.6257 10.1947 38.2168 14.6621C39.8691 19.0684 40.6953 24.0866 40.6953 29.7168C40.6953 35.2246 39.8691 40.2122 38.2168 44.6797C36.5645 49.1471 34.2389 52.6966 31.2402 55.3281C28.3027 57.9596 24.7839 59.2754 20.6836 59.2754ZM20.2246 55.7871C22.8561 55.7871 25.0898 54.6243 26.9258 52.2988C28.7617 49.9733 30.1693 46.791 31.1484 42.752C32.1276 38.7129 32.6172 34.1842 32.6172 29.166C32.6172 24.2702 32.1276 19.9251 31.1484 16.1309C30.1693 12.2754 28.8229 9.24609 27.1094 7.04297C25.3958 4.77865 23.4069 3.64648 21.1426 3.64648C18.6947 3.64648 16.5221 4.77865 14.625 7.04297C12.7891 9.30729 11.3509 12.3978 10.3105 16.3145C9.27018 20.2311 8.75 24.668 8.75 29.625C8.75 34.5208 9.23958 38.9577 10.2188 42.9355C11.1979 46.8522 12.5443 49.9733 14.2578 52.2988C16.0326 54.6243 18.0215 55.7871 20.2246 55.7871ZM51.7109 59.2754C51.4661 59.0306 51.3438 58.5104 51.3438 57.7148C51.3438 56.9805 51.4661 56.6133 51.7109 56.6133C52.2617 56.6133 53.0267 56.5215 54.0059 56.3379C54.985 56.1543 55.903 55.9095 56.7598 55.6035C57.6165 55.2975 58.0755 55.0221 58.1367 54.7773C58.5039 53.3086 58.6875 51.5645 58.6875 49.5449V16.498C58.6875 14.6009 58.6263 13.1322 58.5039 12.0918C58.3815 10.9902 58.0143 10.4395 57.4023 10.4395C56.974 10.4395 56.1478 10.776 54.9238 11.4492C53.7611 12.1224 52.6289 12.7956 51.5273 13.4688C51.1602 13.2852 50.793 12.9486 50.4258 12.459C50.0586 11.9082 49.875 11.4798 49.875 11.1738C49.875 10.929 49.9362 10.7454 50.0586 10.623C60.401 3.58529 65.6947 0.0664062 65.9395 0.0664062H66.123C66.6126 0.0664062 66.9798 0.647786 67.2246 1.81055C66.6126 3.70768 66.3066 6.58398 66.3066 10.4395V46.6074C66.3066 48.3822 66.3678 49.9427 66.4902 51.2891C66.6126 52.6354 66.7962 53.7982 67.041 54.7773C67.1634 55.0221 67.6224 55.2975 68.418 55.6035C69.2747 55.9095 70.1927 56.1543 71.1719 56.3379C72.151 56.5215 72.8242 56.6133 73.1914 56.6133C73.4362 56.6133 73.5586 57.1641 73.5586 58.2656C73.5586 58.8776 73.528 59.2142 73.4668 59.2754C70.4069 59.153 67.959 59.0612 66.123 59C64.2871 58.8776 63.0326 58.8164 62.3594 58.8164C61.8698 58.8164 60.7376 58.8776 58.9629 59C57.1882 59.0612 54.7708 59.153 51.7109 59.2754Z"/>
</mask>
<path d="M3.15039 14.7539L4.08673 15.105L4.08829 15.1008L3.15039 14.7539ZM31.332 4.10547L30.6648 4.8503L30.6729 4.8576L30.6812 4.86473L31.332 4.10547ZM38.2168 14.6621L37.2748 14.9976L37.2775 15.0055L37.2805 15.0132L38.2168 14.6621ZM38.2168 44.6797L37.2789 44.3328L38.2168 44.6797ZM31.2402 55.3281L30.5806 54.5765L30.573 54.5833L31.2402 55.3281ZM26.9258 52.2988L26.1409 51.6792L26.9258 52.2988ZM31.1484 16.1309L30.1792 16.377L30.1802 16.3807L31.1484 16.1309ZM27.1094 7.04297L26.3119 7.64647L26.32 7.65691L27.1094 7.04297ZM14.625 7.04297L13.8585 6.40075L13.8533 6.40692L13.8482 6.41317L14.625 7.04297ZM10.2188 42.9355L9.24773 43.1746L9.24861 43.1781L10.2188 42.9355ZM14.2578 52.2988L13.4528 52.892L13.4578 52.8988L13.4629 52.9055L14.2578 52.2988ZM20.6836 58.2754C16.8839 58.2754 13.6003 57.0457 10.7865 54.5765L9.46736 56.0798C12.651 58.8735 16.4051 60.2754 20.6836 60.2754V58.2754ZM10.7865 54.5765C7.93494 52.0741 5.69411 48.6744 4.08829 44.3328L2.21249 45.0266C3.91136 49.6198 6.32157 53.3192 9.46736 56.0798L10.7865 54.5765ZM4.08829 44.3328C2.4829 39.9923 1.67188 35.1244 1.67188 29.7168H-0.328125C-0.328125 35.3248 0.513196 40.4322 2.21249 45.0266L4.08829 44.3328ZM1.67188 29.7168C1.67188 24.2462 2.48342 19.3805 4.08672 15.105L2.21406 14.4028C0.512671 18.9398 -0.328125 24.0494 -0.328125 29.7168H1.67188ZM4.08829 15.1008C5.69411 10.7591 7.93494 7.35952 10.7865 4.85709L9.46736 3.35384C6.32157 6.11444 3.91136 9.81377 2.21249 14.407L4.08829 15.1008ZM10.7865 4.85709C13.6003 2.38785 16.8839 1.1582 20.6836 1.1582V-0.841797C16.4051 -0.841797 12.651 0.560064 9.46736 3.35384L10.7865 4.85709ZM20.6836 1.1582C24.6137 1.1582 27.9215 2.39275 30.6648 4.8503L31.9993 3.36063C28.8676 0.555166 25.0764 -0.841797 20.6836 -0.841797V1.1582ZM30.6812 4.86473C33.5233 7.3008 35.7304 10.6614 37.2748 14.9976L39.1588 14.3266C37.5209 9.72789 35.1381 6.05076 31.9828 3.34621L30.6812 4.86473ZM37.2805 15.0132C38.8833 19.2876 39.6953 24.1835 39.6953 29.7168H41.6953C41.6953 23.9896 40.8549 18.8492 39.1531 14.311L37.2805 15.0132ZM39.6953 29.7168C39.6953 35.1244 38.8843 39.9923 37.2789 44.3328L39.1547 45.0266C40.854 40.4322 41.6953 35.3248 41.6953 29.7168H39.6953ZM37.2789 44.3328C35.6731 48.6744 33.4322 52.0741 30.5806 54.5765L31.8998 56.0798C35.0456 53.3192 37.4558 49.6198 39.1547 45.0266L37.2789 44.3328ZM30.573 54.5833C27.8267 57.0435 24.5483 58.2754 20.6836 58.2754V60.2754C25.0194 60.2754 28.7787 58.8758 31.9075 56.073L30.573 54.5833ZM20.2246 56.7871C23.2034 56.7871 25.7122 55.4499 27.7107 52.9185L26.1409 51.6792C24.4675 53.7989 22.5088 54.7871 20.2246 54.7871V56.7871ZM27.7107 52.9185C29.6642 50.444 31.1199 47.114 32.1203 42.9876L30.1766 42.5163C29.2186 46.4681 27.8592 49.5027 26.1409 51.6792L27.7107 52.9185ZM32.1203 42.9876C33.1215 38.8574 33.6172 34.2478 33.6172 29.166H31.6172C31.6172 34.1207 31.1337 38.5684 30.1766 42.5163L32.1203 42.9876ZM33.6172 29.166C33.6172 24.2058 33.1214 19.7742 32.1167 15.881L30.1802 16.3807C31.1338 20.0761 31.6172 24.3345 31.6172 29.166H33.6172ZM32.1177 15.8847C31.1179 11.9482 29.7249 8.77698 27.8987 6.42903L26.32 7.65691C27.9209 9.71521 29.2206 12.6026 30.1792 16.377L32.1177 15.8847ZM27.9068 6.43953C26.0573 3.99562 23.7988 2.64648 21.1426 2.64648V4.64648C23.015 4.64648 24.7343 5.56167 26.312 7.64641L27.9068 6.43953ZM21.1426 2.64648C18.3375 2.64648 15.9024 3.96123 13.8585 6.40075L15.3915 7.68519C17.1419 5.59606 19.0518 4.64648 21.1426 4.64648V2.64648ZM13.8482 6.41317C11.8959 8.82103 10.4074 12.0545 9.34406 16.0577L11.277 16.5712C12.2944 12.7411 13.6822 9.79355 15.4018 7.67277L13.8482 6.41317ZM9.34406 16.0577C8.27715 20.0743 7.75 24.5998 7.75 29.625H9.75C9.75 24.7361 10.2632 20.3879 11.277 16.5712L9.34406 16.0577ZM7.75 29.625C7.75 34.5863 8.24601 39.1051 9.24774 43.1746L11.1898 42.6965C10.2332 38.8103 9.75 34.4554 9.75 29.625H7.75ZM9.24861 43.1781C10.2477 47.1745 11.6376 50.4286 13.4528 52.892L15.0629 51.7056C13.4509 49.518 12.1481 46.5299 11.1889 42.693L9.24861 43.1781ZM13.4629 52.9055C15.3596 55.3909 17.6135 56.7871 20.2246 56.7871V54.7871C18.4294 54.7871 16.7055 53.8578 15.0528 51.6922L13.4629 52.9055ZM51.7109 59.2754L51.0038 59.9825L51.3134 60.2921L51.7509 60.2746L51.7109 59.2754ZM56.7598 55.6035L56.4234 54.6618L56.7598 55.6035ZM58.1367 54.7773L57.1666 54.5348L58.1367 54.7773ZM58.5039 12.0918L57.51 12.2022L57.5108 12.2086L58.5039 12.0918ZM54.9238 11.4492L54.4419 10.573L54.4323 10.5783L54.4228 10.5838L54.9238 11.4492ZM51.5273 13.4688L51.0801 14.3632L51.5759 14.611L52.0488 14.322L51.5273 13.4688ZM50.4258 12.459L49.5937 13.0137L49.6091 13.0368L49.6258 13.059L50.4258 12.459ZM50.0586 10.623L49.496 9.7963L49.4181 9.84931L49.3515 9.91594L50.0586 10.623ZM67.2246 1.81055L68.1763 2.11755L68.2579 1.86461L68.2032 1.60454L67.2246 1.81055ZM67.041 54.7773L66.0709 55.0199L66.0975 55.1264L66.1466 55.2246L67.041 54.7773ZM68.418 55.6035L68.059 56.5369L68.0703 56.5412L68.0816 56.5453L68.418 55.6035ZM73.4668 59.2754L73.4268 60.2746L73.8643 60.2921L74.1739 59.9825L73.4668 59.2754ZM66.123 59L66.0565 59.9978L66.0731 59.9989L66.0897 59.9994L66.123 59ZM58.9629 59L58.9974 59.9994L59.0145 59.9988L59.0317 59.9976L58.9629 59ZM52.418 58.5683C52.4803 58.6305 52.4489 58.6423 52.409 58.4726C52.3717 58.3144 52.3438 58.0691 52.3438 57.7148H50.3438C50.3438 58.1562 50.377 58.5687 50.4621 58.9307C50.5446 59.2812 50.6968 59.6755 51.0038 59.9825L52.418 58.5683ZM52.3438 57.7148C52.3438 57.5571 52.3504 57.4348 52.3606 57.3433C52.3656 57.2982 52.3711 57.2641 52.376 57.2397C52.3809 57.2149 52.3844 57.2043 52.3842 57.2049C52.3842 57.2049 52.3781 57.2236 52.3613 57.2538C52.3446 57.284 52.3124 57.3343 52.2574 57.3892C52.2006 57.446 52.1216 57.5056 52.0188 57.5496C51.9149 57.5942 51.8088 57.6133 51.7109 57.6133V55.6133C50.9243 55.6133 50.5916 56.2582 50.4869 56.5724C50.3736 56.9124 50.3438 57.3185 50.3438 57.7148H52.3438ZM51.7109 57.6133C52.3542 57.6133 53.1905 57.5082 54.1901 57.3208L53.8216 55.355C52.8629 55.5348 52.1692 55.6133 51.7109 55.6133V57.6133ZM54.1901 57.3208C55.2162 57.1284 56.1854 56.8705 57.0961 56.5453L56.4234 54.6618C55.6206 54.9485 54.7539 55.1802 53.8216 55.355L54.1901 57.3208ZM57.0961 56.5453C57.5499 56.3832 57.9495 56.2119 58.2611 56.025C58.4172 55.9313 58.5808 55.8163 58.7233 55.6738C58.8614 55.5357 59.0319 55.3196 59.1069 55.0199L57.1666 54.5348C57.2109 54.3575 57.3011 54.2676 57.3091 54.2596C57.3216 54.2471 57.3054 54.266 57.2321 54.31C57.0847 54.3984 56.8264 54.5179 56.4234 54.6618L57.0961 56.5453ZM59.1069 55.0199C59.4992 53.4505 59.6875 51.6209 59.6875 49.5449H57.6875C57.6875 51.508 57.5086 53.1667 57.1666 54.5348L59.1069 55.0199ZM59.6875 49.5449V16.498H57.6875V49.5449H59.6875ZM59.6875 16.498C59.6875 14.5877 59.6263 13.0733 59.4971 11.975L57.5108 12.2086C57.6263 13.191 57.6875 14.6141 57.6875 16.498H59.6875ZM59.4978 11.9814C59.4294 11.3657 59.2818 10.7674 58.9688 10.2978C58.6177 9.77118 58.0738 9.43945 57.4023 9.43945V11.4395C57.4034 11.4395 57.3942 11.4395 57.3778 11.4354C57.361 11.4312 57.3426 11.4241 57.3252 11.4143C57.2878 11.3933 57.2847 11.3773 57.3047 11.4072C57.3588 11.4885 57.456 11.7163 57.51 12.2022L59.4978 11.9814ZM57.4023 9.43945C56.9819 9.43945 56.5155 9.59005 56.0841 9.7658C55.6211 9.95443 55.0711 10.2269 54.4419 10.573L55.4057 12.3254C56.0005 11.9983 56.4755 11.766 56.8387 11.618C57.0199 11.5442 57.1606 11.4966 57.2656 11.4684C57.3766 11.4386 57.4154 11.4395 57.4023 11.4395V9.43945ZM54.4228 10.5838C53.2535 11.2608 52.1145 11.938 51.0059 12.6155L52.0488 14.322C53.1433 13.6531 54.2687 12.984 55.4249 12.3146L54.4228 10.5838ZM51.9746 12.5743C51.7976 12.4858 51.5418 12.2803 51.2258 11.859L49.6258 13.059C50.0442 13.6168 50.5228 14.0845 51.0801 14.3632L51.9746 12.5743ZM51.2578 11.9043C51.0952 11.6604 50.9919 11.4708 50.9318 11.3307C50.8682 11.1823 50.875 11.1395 50.875 11.1738H48.875C48.875 11.8032 49.2182 12.4504 49.5937 13.0137L51.2578 11.9043ZM50.875 11.1738C50.875 11.1318 50.8806 11.1357 50.8696 11.1688C50.8569 11.2067 50.8267 11.2692 50.7657 11.3302L49.3515 9.91594C48.9754 10.292 48.875 10.7749 48.875 11.1738H50.875ZM50.6212 11.4498C55.7917 7.9314 59.6971 5.2947 62.3392 3.53836C63.6611 2.65963 64.6621 2.00443 65.3455 1.57024C65.6885 1.3523 65.9432 1.19534 66.1151 1.09497C66.2028 1.0438 66.2562 1.0148 66.2832 1.00129C66.2979 0.993887 66.2899 0.998632 66.2671 1.00758C66.2557 1.01205 66.2274 1.02281 66.1878 1.03364C66.1594 1.04139 66.0655 1.06641 65.9395 1.06641V-0.933594C65.7215 -0.933594 65.5486 -0.858955 65.5364 -0.854153C65.4785 -0.831457 65.4256 -0.806091 65.3856 -0.786003C65.303 -0.744535 65.2076 -0.691053 65.1068 -0.632267C64.902 -0.512703 64.6222 -0.339766 64.2729 -0.117849C63.5717 0.327684 62.557 0.992065 61.2321 1.87278C58.5806 3.63531 54.668 6.27693 49.496 9.7963L50.6212 11.4498ZM65.9395 1.06641H66.123V-0.933594H65.9395V1.06641ZM66.123 1.06641C66.0334 1.06641 65.9543 1.03583 65.9058 1.00289C65.8682 0.977417 65.8789 0.971176 65.9201 1.03643C66.0102 1.179 66.133 1.47953 66.2461 2.01656L68.2032 1.60454C68.0714 0.978802 67.8883 0.407265 67.6111 -0.0315514C67.3257 -0.483521 66.8397 -0.933594 66.123 -0.933594V1.06641ZM66.2729 1.50354C65.6115 3.5539 65.3066 6.55801 65.3066 10.4395H67.3066C67.3066 6.60996 67.6138 3.86147 68.1763 2.11755L66.2729 1.50354ZM65.3066 10.4395V46.6074H67.3066V10.4395H65.3066ZM65.3066 46.6074C65.3066 48.4036 65.3685 49.9955 65.4943 51.3796L67.4861 51.1985C67.3672 49.8899 67.3066 48.3607 67.3066 46.6074H65.3066ZM65.4943 51.3796C65.6199 52.7612 65.8102 53.9773 66.0709 55.0199L68.0112 54.5348C67.7822 53.6191 67.6053 52.5097 67.4861 51.1985L65.4943 51.3796ZM66.1466 55.2246C66.3417 55.6147 66.6996 55.8672 66.9626 56.025C67.2618 56.2045 67.6349 56.3737 68.059 56.5369L68.7769 54.6702C68.4055 54.5273 68.1513 54.4059 67.9915 54.31C67.9125 54.2626 67.8746 54.232 67.8627 54.2214C67.8472 54.2076 67.8911 54.2415 67.9354 54.3301L66.1466 55.2246ZM68.0816 56.5453C68.9923 56.8705 69.9616 57.1284 70.9876 57.3208L71.3562 55.355C70.4239 55.1802 69.5571 54.9485 68.7543 54.6618L68.0816 56.5453ZM70.9876 57.3208C71.9581 57.5027 72.7183 57.6133 73.1914 57.6133V55.6133C72.9302 55.6133 72.3439 55.5402 71.3562 55.355L70.9876 57.3208ZM73.1914 57.6133C73.0223 57.6133 72.8644 57.5624 72.7367 57.4803C72.6186 57.4043 72.5515 57.3185 72.52 57.2713C72.4656 57.1897 72.4706 57.1534 72.4906 57.2433C72.5273 57.4086 72.5586 57.7327 72.5586 58.2656H74.5586C74.5586 57.697 74.5286 57.1949 74.443 56.8094C74.4018 56.624 74.3303 56.3811 74.1841 56.1618C74.0247 55.9228 73.6987 55.6133 73.1914 55.6133V57.6133ZM72.5586 58.2656C72.5586 58.5614 72.551 58.7632 72.5397 58.8865C72.5339 58.9506 72.5294 58.9667 72.5326 58.953C72.5341 58.9461 72.5425 58.91 72.5636 58.8588C72.5746 58.832 72.5927 58.7924 72.6204 58.7462C72.6475 58.7011 72.6919 58.6361 72.7597 58.5683L74.1739 59.9825C74.3152 59.8412 74.3836 59.6917 74.413 59.6203C74.4475 59.5365 74.4683 59.4593 74.4813 59.4027C74.5075 59.2895 74.5221 59.1718 74.5315 59.0676C74.5509 58.8543 74.5586 58.5819 74.5586 58.2656H72.5586ZM73.5068 58.2762C70.4459 58.1538 67.9955 58.0619 66.1564 58.0006L66.0897 59.9994C67.9225 60.0605 70.3679 60.1522 73.4268 60.2746L73.5068 58.2762ZM66.1896 58.0022C64.3568 57.88 63.0706 57.8164 62.3594 57.8164V59.8164C62.9945 59.8164 64.2174 59.8752 66.0565 59.9978L66.1896 58.0022ZM62.3594 57.8164C61.8281 57.8164 60.6583 57.8807 58.8941 58.0024L59.0317 59.9976C60.817 59.8745 61.9114 59.8164 62.3594 59.8164V57.8164ZM58.9284 58.0006C57.151 58.0619 54.7316 58.1538 51.671 58.2762L51.7509 60.2746C54.8101 60.1522 57.2253 60.0605 58.9974 59.9994L58.9284 58.0006Z" fill="black" mask="url(#path-1-outside-1_8_100)"/>
</svg>
