<svg width="24" height="24" viewBox="0 0 24 24" fill="none" xmlns="http://www.w3.org/2000/svg">
<g clip-path="url(#clip0_130_39)">
<path d="M3 19V5.7C2.99994 5.49473 3.06305 5.2944 3.18077 5.12624C3.29849 4.95807 3.4651 4.8302 3.658 4.76L13.329 1.244C13.4045 1.21651 13.4856 1.20763 13.5653 1.21813C13.645 1.22863 13.721 1.2582 13.7869 1.30432C13.8527 1.35044 13.9065 1.41176 13.9436 1.48308C13.9807 1.5544 14 1.63361 14 1.714V6.667L20.316 8.772C20.5152 8.83835 20.6885 8.96572 20.8112 9.13605C20.934 9.30638 21.0001 9.51103 21 9.721V19H23V21H1V19H3ZM5 19H12V3.855L5 6.401V19ZM19 19V10.442L14 8.775V19H19Z" fill="white"/>
</g>
<defs>
<clipPath id="clip0_130_39">
<rect width="24" height="24" fill="white"/>
</clipPath>
</defs>
</svg>
