<svg width="77" height="77" viewBox="0 0 77 77" fill="none" xmlns="http://www.w3.org/2000/svg">
<g id="ri-double-quotes-l" clip-path="url(#clip0_20_176)">
<g id="Group">
<g id="Vector">
<path d="M13.5981 55.7466C10.33 52.293 9.13161 47.1373 9.13161 40.8583C9.13161 29.8095 17.1497 20.4446 28.4863 15.5483L31.464 20.0148C20.8825 25.7097 18.8895 33.2212 18.0646 37.8807C19.7684 37.0031 21.8337 36.1898 24.0198 36.3919C29.7437 36.9191 34.4416 42.4907 34.4416 48.3025C34.4416 51.2328 33.5466 53.6745 31.464 55.7466C29.3814 57.8186 25.4763 58.7242 22.531 58.7242C19.1265 58.7242 15.6573 57.9216 13.5981 55.7466ZM46.3522 55.7466C43.0842 52.293 40.3969 47.1373 40.3969 40.8583C40.3969 29.8095 48.415 20.4446 59.7516 15.5483L62.7293 20.0148C52.1478 25.7097 50.1548 33.2212 49.3299 37.8807C51.0337 37.0031 53.0991 36.1898 55.2852 36.3919C61.009 36.9191 65.7069 42.4907 65.7069 48.3025C65.7069 51.2328 64.8119 53.6745 62.7293 55.7466C60.6467 57.8186 58.2304 58.7242 55.2852 58.7242C51.8807 58.7242 48.4114 57.9216 46.3522 55.7466Z" fill="#333333"/>
</g>
</g>
</g>
<defs>
<clipPath id="clip0_20_176">
<rect width="75.93" height="75.93" fill="white" transform="translate(0.198669 0.659668)"/>
</clipPath>
</defs>
</svg>
