<svg width="32" height="33" viewBox="0 0 32 33" fill="none" xmlns="http://www.w3.org/2000/svg">
<g id="logos:facebook" clip-path="url(#clip0_110_440)">
<path id="Vector" d="M32 16.1201C32 7.28362 24.8365 0.120117 16 0.120117C7.1635 0.120117 0 7.28349 0 16.1201C0 24.1061 5.851 30.7255 13.5 31.9257V20.7451H9.4375V16.1201H13.5V12.5951C13.5 8.58512 15.8888 6.37012 19.5434 6.37012C21.294 6.37012 23.125 6.68262 23.125 6.68262V10.6201H21.1075C19.1198 10.6201 18.5 11.8535 18.5 13.1189V16.1201H22.9375L22.2281 20.7451H18.5V31.9257C26.149 30.7255 32 24.1062 32 16.1201Z" fill="#1877F2"/>
<path id="Vector_2" d="M22.2281 20.7451L22.9375 16.1201H18.5V13.1189C18.5 11.8534 19.1199 10.6201 21.1075 10.6201H23.125V6.68262C23.125 6.68262 21.294 6.37012 19.5434 6.37012C15.8888 6.37012 13.5 8.58512 13.5 12.5951V16.1201H9.4375V20.7451H13.5V31.9257C14.327 32.0553 15.1629 32.1203 16 32.1201C16.8371 32.1204 17.673 32.0554 18.5 31.9257V20.7451H22.2281Z" fill="white"/>
</g>
<defs>
<clipPath id="clip0_110_440">
<rect width="32" height="32" fill="white" transform="translate(0 0.120117)"/>
</clipPath>
</defs>
</svg>
