<svg width="32" height="33" viewBox="0 0 32 33" fill="none" xmlns="http://www.w3.org/2000/svg">
<g id="skill-icons:instagram" clip-path="url(#clip0_110_443)">
<g id="Group">
<path id="Vector" d="M24.5 0.120117H7.5C3.35786 0.120117 0 3.47798 0 7.62012V24.6201C0 28.7623 3.35786 32.1201 7.5 32.1201H24.5C28.6421 32.1201 32 28.7623 32 24.6201V7.62012C32 3.47798 28.6421 0.120117 24.5 0.120117Z" fill="url(#paint0_radial_110_443)"/>
<path id="Vector_2" d="M24.5 0.120117H7.5C3.35786 0.120117 0 3.47798 0 7.62012V24.6201C0 28.7623 3.35786 32.1201 7.5 32.1201H24.5C28.6421 32.1201 32 28.7623 32 24.6201V7.62012C32 3.47798 28.6421 0.120117 24.5 0.120117Z" fill="url(#paint1_radial_110_443)"/>
<path id="Vector_3" d="M16.0011 3.62012C12.6064 3.62012 12.1803 3.63499 10.847 3.69562C9.51625 3.75662 8.60787 3.96724 7.81313 4.27637C6.99088 4.59562 6.2935 5.02274 5.59875 5.71774C4.90338 6.41262 4.47625 7.10999 4.156 7.93187C3.846 8.72687 3.63512 9.63562 3.57525 10.9657C3.51562 12.2991 3.5 12.7254 3.5 16.1202C3.5 19.5151 3.515 19.9399 3.5755 21.2731C3.63675 22.6039 3.84738 23.5122 4.15625 24.307C4.47575 25.1292 4.90288 25.8266 5.59788 26.5214C6.2925 27.2167 6.98988 27.6449 7.8115 27.9641C8.60687 28.2732 9.51537 28.4839 10.8459 28.5449C12.1792 28.6055 12.605 28.6204 15.9996 28.6204C19.3948 28.6204 19.8195 28.6055 21.1528 28.5449C22.4835 28.4839 23.3929 28.2732 24.1882 27.9641C25.0101 27.6449 25.7065 27.2167 26.401 26.5214C27.0964 25.8266 27.5234 25.1292 27.8438 24.3074C28.151 23.5122 28.362 22.6036 28.4245 21.2734C28.4844 19.9401 28.5 19.5151 28.5 16.1202C28.5 12.7254 28.4844 12.2994 28.4245 10.966C28.362 9.63524 28.151 8.72699 27.8438 7.93224C27.5234 7.10999 27.0964 6.41262 26.401 5.71774C25.7057 5.02249 25.0104 4.59537 24.1875 4.27649C23.3906 3.96724 22.4817 3.75649 21.151 3.69562C19.8176 3.63499 19.3931 3.62012 15.9972 3.62012H16.0011ZM14.8798 5.87274C15.2126 5.87224 15.584 5.87274 16.0011 5.87274C19.3388 5.87274 19.7342 5.88474 21.0522 5.94462C22.271 6.00037 22.9325 6.20399 23.3731 6.37512C23.9565 6.60162 24.3724 6.87249 24.8096 7.31012C25.2471 7.74762 25.5179 8.16424 25.745 8.74762C25.9161 9.18762 26.12 9.84912 26.1755 11.0679C26.2354 12.3856 26.2484 12.7814 26.2484 16.1174C26.2484 19.4534 26.2354 19.8492 26.1755 21.1669C26.1198 22.3856 25.9161 23.0471 25.745 23.4872C25.5185 24.0706 25.2471 24.486 24.8096 24.9232C24.3721 25.3607 23.9568 25.6315 23.3731 25.8581C22.933 26.03 22.271 26.2331 21.0522 26.2889C19.7345 26.3487 19.3388 26.3617 16.0011 26.3617C12.6634 26.3617 12.2677 26.3487 10.9501 26.2889C9.73137 26.2326 9.06987 26.029 8.62887 25.8579C8.04562 25.6312 7.62887 25.3605 7.19137 24.923C6.75387 24.4855 6.48312 24.0699 6.256 23.4862C6.08488 23.0461 5.881 22.3846 5.8255 21.1659C5.76562 19.8481 5.75362 19.4524 5.75362 16.1142C5.75362 12.7762 5.76562 12.3825 5.8255 11.0647C5.88125 9.84599 6.08488 9.18449 6.256 8.74387C6.48263 8.16049 6.75388 7.74387 7.1915 7.30637C7.629 6.86887 8.04562 6.59799 8.629 6.37099C9.06962 6.19912 9.73137 5.99599 10.9501 5.93999C12.1032 5.88787 12.5501 5.87224 14.8798 5.86962V5.87274ZM22.6736 7.94824C21.8455 7.94824 21.1736 8.61949 21.1736 9.44774C21.1736 10.2759 21.8455 10.9477 22.6736 10.9477C23.5018 10.9477 24.1736 10.2759 24.1736 9.44774C24.1736 8.61962 23.5018 7.94774 22.6736 7.94774V7.94824ZM16.0011 9.70087C12.4561 9.70087 9.58187 12.5751 9.58187 16.1202C9.58187 19.6654 12.4561 22.5382 16.0011 22.5382C19.5462 22.5382 22.4195 19.6654 22.4195 16.1202C22.4195 12.5752 19.546 9.70087 16.0009 9.70087H16.0011ZM16.0011 11.9535C18.3022 11.9535 20.1679 13.8189 20.1679 16.1202C20.1679 18.4214 18.3022 20.287 16.0011 20.287C13.6999 20.287 11.8345 18.4214 11.8345 16.1202C11.8345 13.8189 13.6999 11.9535 16.0011 11.9535Z" fill="white"/>
</g>
</g>
<defs>
<radialGradient id="paint0_radial_110_443" cx="0" cy="0" r="1" gradientUnits="userSpaceOnUse" gradientTransform="translate(8.5 34.5847) rotate(-90) scale(31.7144 29.4969)">
<stop stop-color="#FFDD55"/>
<stop offset="0.1" stop-color="#FFDD55"/>
<stop offset="0.5" stop-color="#FF543E"/>
<stop offset="1" stop-color="#C837AB"/>
</radialGradient>
<radialGradient id="paint1_radial_110_443" cx="0" cy="0" r="1" gradientUnits="userSpaceOnUse" gradientTransform="translate(-5.36012 2.42524) rotate(78.681) scale(14.1765 58.436)">
<stop stop-color="#3771C8"/>
<stop offset="0.128" stop-color="#3771C8"/>
<stop offset="1" stop-color="#6600FF" stop-opacity="0"/>
</radialGradient>
<clipPath id="clip0_110_443">
<rect width="32" height="32" fill="white" transform="translate(0 0.120117)"/>
</clipPath>
</defs>
</svg>
